<mxfile host="65bd71144e">
    <diagram id="WB0gov0QT5JhvgLGUwM9" name="Page-1">
        <mxGraphModel dx="958" dy="1139" grid="1" gridSize="10" guides="1" tooltips="1" connect="1" arrows="1" fold="1" page="1" pageScale="1" pageWidth="850" pageHeight="1100" math="0" shadow="0">
            <root>
                <mxCell id="0"/>
                <mxCell id="1" parent="0"/>
                <mxCell id="26" style="edgeStyle=none;html=1;" parent="1" target="16" edge="1">
                    <mxGeometry relative="1" as="geometry">
                        <mxPoint x="250" y="290" as="sourcePoint"/>
                    </mxGeometry>
                </mxCell>
                <mxCell id="28" style="edgeStyle=none;html=1;" parent="1" target="15" edge="1">
                    <mxGeometry relative="1" as="geometry">
                        <mxPoint x="140" y="290" as="sourcePoint"/>
                    </mxGeometry>
                </mxCell>
                <mxCell id="2" value="" style="rounded=0;whiteSpace=wrap;html=1;fillColor=#6d8764;fontColor=#ffffff;strokeColor=#3A5431;" parent="1" vertex="1">
                    <mxGeometry x="40" y="80" width="640" height="220" as="geometry"/>
                </mxCell>
                <mxCell id="3" value="" style="rounded=0;whiteSpace=wrap;html=1;fillColor=#d5e8d4;strokeColor=#82b366;gradientColor=#97d077;" parent="1" vertex="1">
                    <mxGeometry x="60" y="130" width="600" height="140" as="geometry"/>
                </mxCell>
                <mxCell id="4" value="REPLICASET" style="rounded=0;whiteSpace=wrap;html=1;fillColor=#fff2cc;gradientColor=#ffd966;strokeColor=#d6b656;fontColor=#0a0a0a;" parent="1" vertex="1">
                    <mxGeometry x="90" y="180" width="100" height="50" as="geometry"/>
                </mxCell>
                <mxCell id="9" value="READNESS" style="rounded=0;whiteSpace=wrap;html=1;fillColor=#fff2cc;gradientColor=#ffd966;strokeColor=#d6b656;fontColor=#080808;" parent="1" vertex="1">
                    <mxGeometry x="310" y="180" width="100" height="50" as="geometry"/>
                </mxCell>
                <mxCell id="10" value="LIVENESS" style="rounded=0;whiteSpace=wrap;html=1;fillColor=#fff2cc;gradientColor=#ffd966;strokeColor=#d6b656;fontColor=#080808;" parent="1" vertex="1">
                    <mxGeometry x="200" y="180" width="100" height="50" as="geometry"/>
                </mxCell>
                <mxCell id="12" value="ENV" style="rounded=0;whiteSpace=wrap;html=1;fillColor=#fff2cc;gradientColor=#ffd966;strokeColor=#d6b656;fontColor=#080808;" parent="1" vertex="1">
                    <mxGeometry x="425" y="180" width="100" height="50" as="geometry"/>
                </mxCell>
                <mxCell id="13" value="VOLUME LOCAL" style="rounded=0;whiteSpace=wrap;html=1;fillColor=#fff2cc;gradientColor=#ffd966;strokeColor=#d6b656;fontColor=#080808;" parent="1" vertex="1">
                    <mxGeometry x="535" y="180" width="100" height="50" as="geometry"/>
                </mxCell>
                <mxCell id="15" value="SERVICE&lt;br&gt;NodePort" style="rounded=0;whiteSpace=wrap;html=1;fillColor=#dae8fc;gradientColor=#7ea6e0;strokeColor=#6c8ebf;fontColor=#080808;" parent="1" vertex="1">
                    <mxGeometry x="87.5" y="340" width="100" height="50" as="geometry"/>
                </mxCell>
                <mxCell id="16" value="HPA" style="rounded=0;whiteSpace=wrap;html=1;fillColor=#dae8fc;gradientColor=#7ea6e0;strokeColor=#6c8ebf;fontColor=#080808;" parent="1" vertex="1">
                    <mxGeometry x="197.5" y="340" width="100" height="50" as="geometry"/>
                </mxCell>
                <mxCell id="35" style="edgeStyle=none;html=1;entryX=0.5;entryY=1;entryDx=0;entryDy=0;fontColor=#080808;" parent="1" source="17" target="12" edge="1">
                    <mxGeometry relative="1" as="geometry">
                        <Array as="points">
                            <mxPoint x="360" y="280"/>
                        </Array>
                    </mxGeometry>
                </mxCell>
                <mxCell id="17" value="ConfigMap" style="rounded=0;whiteSpace=wrap;html=1;fillColor=#dae8fc;gradientColor=#7ea6e0;strokeColor=#6c8ebf;fontColor=#080808;" parent="1" vertex="1">
                    <mxGeometry x="308.5" y="340" width="100" height="50" as="geometry"/>
                </mxCell>
                <mxCell id="23" style="edgeStyle=none;html=1;entryX=0.5;entryY=1;entryDx=0;entryDy=0;" parent="1" source="18" target="12" edge="1">
                    <mxGeometry relative="1" as="geometry"/>
                </mxCell>
                <mxCell id="18" value="SECRETS" style="rounded=0;whiteSpace=wrap;html=1;fillColor=#dae8fc;gradientColor=#7ea6e0;strokeColor=#6c8ebf;fontColor=#080808;" parent="1" vertex="1">
                    <mxGeometry x="425" y="340" width="100" height="50" as="geometry"/>
                </mxCell>
                <mxCell id="31" value="DEPLOYMENT" style="text;html=1;align=center;verticalAlign=middle;whiteSpace=wrap;rounded=0;fontStyle=1;fontColor=#080808;" parent="1" vertex="1">
                    <mxGeometry x="60" y="90" width="60" height="30" as="geometry"/>
                </mxCell>
                <mxCell id="33" value="POD" style="text;html=1;align=center;verticalAlign=middle;whiteSpace=wrap;rounded=0;fontStyle=1;fontColor=#080808;" parent="1" vertex="1">
                    <mxGeometry x="70" y="140" width="60" height="30" as="geometry"/>
                </mxCell>
                <mxCell id="36" value="BACKEND" style="text;html=1;align=center;verticalAlign=middle;whiteSpace=wrap;rounded=0;fontStyle=1;fontColor=#f8f6f6;" parent="1" vertex="1">
                    <mxGeometry x="40" y="50" width="60" height="30" as="geometry"/>
                </mxCell>
            </root>
        </mxGraphModel>
    </diagram>
</mxfile>